<svg width="640" height="480" viewBox="0 0 640 480" xmlns="http://www.w3.org/2000/svg" role="img" aria-labelledby="title desc">
  <title id="title">Illustration d'une équipe digitale</title>
  <desc id="desc">Trois personnes collaborent autour d'un tableau de bord numérique.</desc>
  <rect width="640" height="480" rx="40" fill="#ffffff" />
  <rect x="120" y="80" width="400" height="240" rx="32" fill="#ffffff" stroke="#000000" stroke-width="4" />
  <rect x="150" y="110" width="170" height="30" rx="15" fill="#1daaa8" opacity="0.25" />
  <rect x="340" y="110" width="150" height="30" rx="15" fill="#1daaa8" opacity="0.4" />
  <rect x="150" y="170" width="320" height="14" rx="7" fill="#1daaa8" opacity="0.45" />
  <rect x="150" y="200" width="280" height="14" rx="7" fill="#1daaa8" opacity="0.3" />
  <rect x="150" y="230" width="200" height="14" rx="7" fill="#1daaa8" opacity="0.2" />
  <rect x="150" y="260" width="120" height="14" rx="7" fill="#1daaa8" opacity="0.15" />
  <g transform="translate(120 320)">
    <circle cx="70" cy="70" r="50" fill="#1daaa8" opacity="0.15" />
    <circle cx="70" cy="40" r="30" fill="#1daaa8" />
    <rect x="40" y="70" width="60" height="70" rx="28" fill="#1daaa8" />
    <path d="M55 110h60" stroke="#000000" stroke-width="4" stroke-linecap="round" />
  </g>
  <g transform="translate(260 300)">
    <circle cx="60" cy="80" r="55" fill="#1daaa8" opacity="0.12" />
    <circle cx="60" cy="45" r="30" fill="#1daaa8" />
    <rect x="32" y="70" width="56" height="72" rx="26" fill="#1daaa8" />
    <path d="M46 112h52" stroke="#000000" stroke-width="4" stroke-linecap="round" />
  </g>
  <g transform="translate(400 310)">
    <circle cx="70" cy="70" r="50" fill="#1daaa8" opacity="0.18" />
    <circle cx="70" cy="40" r="30" fill="#1daaa8" />
    <rect x="42" y="70" width="56" height="70" rx="26" fill="#1daaa8" />
    <path d="M52 108h60" stroke="#000000" stroke-width="4" stroke-linecap="round" />
  </g>
  <path d="M210 370h220" stroke="#000000" stroke-width="6" stroke-linecap="round" opacity="0.3" />
</svg>
